<svg xmlns="http://www.w3.org/2000/svg" xmlns:xlink="http://www.w3.org/1999/xlink" width="2000" zoomAndPan="magnify" viewBox="0 0 1500 1499.999933" height="2000" preserveAspectRatio="xMidYMid meet" version="1.0"><defs><clipPath id="502c39cd66"><path d="M 3.523438 253 L 1496.773438 253 L 1496.773438 1499 L 3.523438 1499 Z M 3.523438 253 " clip-rule="nonzero"/></clipPath></defs><g clip-path="url(#502c39cd66)"><path fill="#1c82bd" d="M 1496.328125 253.238281 L 1468.539062 758.074219 L 1390.144531 707.242188 C 1389.402344 706.757812 1388.632812 706.316406 1387.839844 705.914062 C 1387.050781 705.507812 1386.238281 705.148438 1385.410156 704.832031 C 1384.582031 704.511719 1383.738281 704.238281 1382.882812 704.007812 C 1382.023438 703.777344 1381.15625 703.589844 1380.28125 703.449219 C 1379.402344 703.3125 1378.519531 703.21875 1377.632812 703.167969 C 1376.746094 703.121094 1375.859375 703.117188 1374.972656 703.164062 C 1374.085938 703.207031 1373.203125 703.296875 1372.328125 703.433594 C 1371.449219 703.570312 1370.582031 703.753906 1369.722656 703.980469 C 1368.863281 704.207031 1368.019531 704.476562 1367.191406 704.792969 C 1366.359375 705.105469 1365.546875 705.464844 1364.753906 705.863281 C 1363.960938 706.261719 1363.191406 706.703125 1362.445312 707.183594 C 1361.695312 707.664062 1360.976562 708.179688 1360.285156 708.734375 C 1359.589844 709.289062 1358.929688 709.878906 1358.296875 710.503906 C 1357.664062 711.128906 1357.066406 711.78125 1356.503906 712.46875 C 1355.941406 713.15625 1355.414062 713.867188 1354.925781 714.609375 C 1354.433594 715.351562 1353.984375 716.117188 1353.578125 716.902344 C 1335.167969 752.414062 1309.40625 794.046875 1274.8125 844.121094 C 1274.765625 844.210938 1274.714844 844.292969 1274.652344 844.371094 C 1217.734375 928.863281 1173.742188 986.699219 1136.203125 1026.371094 L 1135.480469 1027.183594 C 1072.671875 1099.601562 1012.617188 1157.101562 951.890625 1202.925781 L 834.175781 1288.777344 C 776.746094 1324.910156 727.941406 1351.832031 684.953125 1371.050781 L 683.875 1371.582031 C 646.054688 1390.675781 595.714844 1410.109375 525.183594 1432.695312 C 453.523438 1454.207031 400.46875 1467.21875 358.328125 1473.65625 C 357.832031 1473.726562 357.339844 1473.816406 356.84375 1473.921875 C 317.789062 1482.242188 266.355469 1488.855469 195.015625 1494.746094 C 138.589844 1498.871094 75.800781 1499.875 3.453125 1497.8125 C 40.929688 1490.253906 77.957031 1481.730469 114.539062 1472.246094 L 117.167969 1471.574219 C 227.371094 1443.089844 334.265625 1405.257812 437.847656 1358.074219 C 438.234375 1357.925781 438.613281 1357.753906 438.976562 1357.5625 L 442.222656 1356.082031 L 443.492188 1355.449219 C 547.523438 1300.382812 637.800781 1244.449219 716.796875 1185.894531 L 717.605469 1185.292969 L 717.871094 1185.082031 C 717.984375 1185.027344 718.082031 1184.957031 718.171875 1184.871094 C 745.996094 1164.242188 772.355469 1143.292969 797.515625 1121.90625 C 881.941406 1052.132812 971.886719 955.191406 1072.445312 825.539062 C 1125.710938 756.894531 1171.769531 687.773438 1209.359375 620.082031 C 1209.746094 619.394531 1210.097656 618.691406 1210.414062 617.972656 C 1210.734375 617.253906 1211.019531 616.519531 1211.269531 615.773438 C 1211.519531 615.027344 1211.738281 614.269531 1211.917969 613.503906 C 1212.097656 612.738281 1212.246094 611.964844 1212.355469 611.1875 C 1212.464844 610.40625 1212.535156 609.621094 1212.574219 608.835938 C 1212.609375 608.050781 1212.609375 607.261719 1212.574219 606.476562 C 1212.539062 605.691406 1212.46875 604.90625 1212.359375 604.128906 C 1212.25 603.347656 1212.105469 602.574219 1211.925781 601.808594 C 1211.746094 601.039062 1211.53125 600.285156 1211.28125 599.539062 C 1211.03125 598.789062 1210.746094 598.058594 1210.429688 597.335938 C 1210.113281 596.617188 1209.761719 595.914062 1209.378906 595.226562 C 1208.996094 594.535156 1208.582031 593.867188 1208.136719 593.21875 C 1207.691406 592.570312 1207.21875 591.941406 1206.714844 591.335938 C 1206.210938 590.730469 1205.679688 590.148438 1205.125 589.59375 C 1204.566406 589.035156 1203.984375 588.503906 1203.378906 588.003906 C 1202.773438 587.5 1202.144531 587.027344 1201.496094 586.582031 L 1118.835938 529.769531 C 1120.101562 528.679688 1121.449219 527.699219 1122.871094 526.824219 L 1124.195312 525.910156 L 1257.496094 428.242188 Z M 1496.328125 253.238281 " fill-opacity="1" fill-rule="nonzero"/></g><path fill="#1c82bd" d="M 402.550781 654.695312 L 402.550781 1318.050781 C 315.835938 1356.695312 226.722656 1388.640625 135.203125 1413.882812 L 135.203125 651.628906 C 135.203125 633.484375 147.546875 618.726562 162.570312 618.726562 L 372.398438 618.726562 C 374.246094 618.71875 376.066406 618.929688 377.863281 619.359375 L 378.058594 619.359375 C 392.179688 622.640625 402.550781 637.46875 402.550781 654.695312 Z M 402.550781 654.695312 " fill-opacity="1" fill-rule="nonzero"/><path fill="#1c82bd" d="M 676.574219 435.613281 L 676.574219 1152.128906 C 610.789062 1200.121094 536.945312 1246.445312 453.507812 1292.113281 L 453.507812 654.695312 C 453.507812 621.582031 435.75 591.785156 409.214844 577.203125 L 409.214844 432.613281 C 409.214844 413.835938 421.734375 398.546875 437.125 398.546875 L 645.878906 398.546875 C 648.824219 398.585938 651.691406 399.09375 654.46875 400.074219 C 657.25 401.054688 659.800781 402.457031 662.117188 404.277344 C 671.164062 411.121094 676.574219 422.882812 676.574219 435.613281 Z M 676.574219 435.613281 " fill-opacity="1" fill-rule="nonzero"/><path fill="#1c82bd" d="M 1004.558594 216.792969 L 1004.558594 829.277344 C 917.417969 938.527344 838.6875 1021.648438 764.878906 1082.726562 L 764.578125 1082.953125 C 752.589844 1093.183594 740.246094 1103.320312 727.550781 1113.371094 L 727.550781 435.613281 C 727.578125 430.078125 727.109375 424.585938 726.148438 419.136719 C 725.183594 413.6875 723.742188 408.367188 721.820312 403.179688 C 719.902344 397.988281 717.53125 393.011719 714.714844 388.25 C 711.898438 383.488281 708.675781 379.015625 705.050781 374.832031 L 705.050781 213.742188 C 705.0625 212.660156 705.121094 211.578125 705.234375 210.5 C 705.351562 209.421875 705.515625 208.351562 705.734375 207.292969 C 705.953125 206.230469 706.226562 205.183594 706.546875 204.148438 C 706.867188 203.113281 707.242188 202.097656 707.660156 201.097656 C 708.082031 200.101562 708.554688 199.125 709.070312 198.171875 C 709.585938 197.21875 710.148438 196.296875 710.757812 195.398438 C 711.367188 194.5 712.015625 193.636719 712.710938 192.804688 C 713.402344 191.96875 714.132812 191.171875 714.90625 190.410156 C 715.675781 189.652344 716.484375 188.929688 717.324219 188.246094 C 718.167969 187.5625 719.039062 186.925781 719.945312 186.328125 C 720.851562 185.730469 721.78125 185.179688 722.742188 184.675781 C 723.699219 184.171875 724.679688 183.714844 725.683594 183.304688 C 726.6875 182.894531 727.707031 182.539062 728.746094 182.230469 C 729.785156 181.921875 730.835938 181.664062 731.902344 181.457031 C 732.964844 181.253906 734.039062 181.101562 735.117188 181 C 736.195312 180.898438 737.277344 180.851562 738.359375 180.859375 L 968.164062 180.859375 C 969.347656 180.851562 970.53125 180.902344 971.710938 181.011719 C 972.890625 181.121094 974.058594 181.289062 975.222656 181.511719 C 976.386719 181.738281 977.535156 182.019531 978.667969 182.355469 C 979.804688 182.691406 980.921875 183.085938 982.015625 183.53125 C 983.113281 183.980469 984.183594 184.476562 985.234375 185.03125 C 986.28125 185.582031 987.296875 186.183594 988.289062 186.835938 C 989.277344 187.488281 990.230469 188.1875 991.148438 188.933594 C 992.070312 189.675781 992.953125 190.464844 993.792969 191.296875 C 994.636719 192.128906 995.4375 193 996.195312 193.910156 C 996.949219 194.820312 997.660156 195.765625 998.324219 196.746094 C 998.988281 197.726562 999.605469 198.738281 1000.171875 199.777344 C 1000.734375 200.820312 1001.25 201.886719 1001.707031 202.976562 C 1002.167969 204.066406 1002.574219 205.179688 1002.925781 206.308594 C 1003.277344 207.4375 1003.574219 208.585938 1003.8125 209.746094 C 1004.050781 210.902344 1004.234375 212.074219 1004.359375 213.25 C 1004.484375 214.429688 1004.550781 215.609375 1004.558594 216.792969 Z M 1004.558594 216.792969 " fill-opacity="1" fill-rule="nonzero"/><path fill="#1c82bd" d="M 1067.011719 548.179688 C 1067.757812 551.238281 1069.023438 554.066406 1070.808594 556.664062 C 1072.597656 559.257812 1074.785156 561.449219 1077.382812 563.238281 L 1153.304688 615.464844 C 1123.554688 666.601562 1090.988281 715.878906 1055.605469 763.292969 L 1055.605469 216.792969 C 1055.597656 215.367188 1055.558594 213.941406 1055.484375 212.515625 C 1055.410156 211.089844 1055.300781 209.667969 1055.15625 208.246094 C 1055.007812 206.828125 1054.828125 205.414062 1054.617188 204.003906 C 1054.402344 202.589844 1054.152344 201.1875 1053.871094 199.789062 C 1053.585938 198.390625 1053.269531 197 1052.917969 195.617188 C 1052.566406 194.230469 1052.183594 192.859375 1051.761719 191.496094 C 1051.34375 190.128906 1050.894531 188.777344 1050.40625 187.433594 C 1049.921875 186.09375 1049.40625 184.765625 1048.855469 183.445312 C 1048.304688 182.128906 1047.722656 180.828125 1047.109375 179.539062 C 1046.496094 178.25 1045.851562 176.980469 1045.171875 175.722656 C 1044.496094 174.464844 1043.789062 173.226562 1043.054688 172.003906 C 1042.316406 170.785156 1041.550781 169.582031 1040.753906 168.394531 C 1039.957031 167.210938 1039.132812 166.046875 1038.28125 164.902344 C 1037.425781 163.761719 1036.546875 162.636719 1035.636719 161.539062 C 1034.730469 160.4375 1033.792969 159.359375 1032.832031 158.304688 C 1031.871094 157.25 1030.886719 156.21875 1029.875 155.210938 C 1028.863281 154.207031 1027.828125 153.226562 1026.769531 152.269531 C 1025.707031 151.3125 1024.625 150.382812 1023.519531 149.480469 C 1022.414062 148.578125 1021.289062 147.703125 1020.140625 146.855469 C 1018.992188 146.007812 1017.824219 145.191406 1016.636719 144.398438 C 1015.449219 143.609375 1014.242188 142.847656 1013.015625 142.117188 C 1011.789062 141.386719 1010.546875 140.6875 1009.285156 140.015625 C 1008.027344 139.347656 1006.75 138.707031 1005.460938 138.101562 C 1004.167969 137.492188 1002.863281 136.917969 1001.542969 136.375 C 1000.226562 135.832031 998.894531 135.320312 997.546875 134.84375 C 996.203125 134.363281 994.847656 133.917969 993.480469 133.507812 C 992.117188 133.09375 990.742188 132.71875 989.355469 132.375 C 987.972656 132.027344 986.578125 131.71875 985.179688 131.441406 C 983.777344 131.167969 982.371094 130.925781 980.960938 130.71875 C 979.546875 130.511719 978.132812 130.339844 976.710938 130.199219 C 975.292969 130.0625 973.867188 129.960938 972.445312 129.894531 C 971.019531 129.824219 969.59375 129.792969 968.164062 129.792969 L 952.683594 129.792969 L 952.683594 32.957031 C 952.683594 14.847656 965.027344 0.0898438 980.066406 0.0898438 L 1186.542969 0.0898438 C 1203.1875 0.0898438 1216.695312 16.222656 1216.695312 36.042969 L 1216.695312 394.828125 L 1094.625 484.277344 C 1071.015625 499.722656 1060.964844 522.964844 1067.011719 548.179688 Z M 1067.011719 548.179688 " fill-opacity="1" fill-rule="nonzero"/></svg>